<?xml version="1.0" encoding="UTF-8" standalone="no"?>
<svg
   xmlns:dc="http://purl.org/dc/elements/1.1/"
   xmlns:cc="http://creativecommons.org/ns#"
   xmlns:rdf="http://www.w3.org/1999/02/22-rdf-syntax-ns#"
   xmlns:svg="http://www.w3.org/2000/svg"
   xmlns="http://www.w3.org/2000/svg"
   version="1.1"
   id="svg2"
   viewBox="0 0 166.94035 134.08673"
   height="37.842255mm"
   width="47.114277mm">
  <defs
     id="defs4">
    <clipPath
       clipPathUnits="userSpaceOnUse"
       id="clipPath4150">
      <path
         d="m 0,0.1 595.2,0 0,841.8 L 0,841.9 0,0.1 Z"
         id="path4152"
         style="clip-rule:evenodd" />
    </clipPath>
    <clipPath
       clipPathUnits="userSpaceOnUse"
       id="clipPath4180">
      <path
         d="m -177,420 949,0 0,0.1 -949,0 0,-0.1 z"
         id="path4182" />
    </clipPath>
  </defs>
  <metadata
     id="metadata7">
    <rdf:RDF>
      <cc:Work
         rdf:about="">
        <dc:format>image/svg+xml</dc:format>
        <dc:type
           rdf:resource="http://purl.org/dc/dcmitype/StillImage" />
        <dc:title></dc:title>
      </cc:Work>
    </rdf:RDF>
  </metadata>
  <g
     transform="translate(-66.583397,-93.017024)"
     id="layer1">
    <path
       id="path4156"
       style="fill:#000000;fill-opacity:1;fill-rule:evenodd;stroke:none"
       d="m 105.67857,146.3622 c 2,0 3.5,1.5 3.5,3.5 0,2 -1.5,3.5 -3.5,3.5 -2,0 -3.5,-1.5 -3.5,-3.5 0,-2 1.5,-3.5 3.5,-3.5 z m -3.5,0 0,0 z m 7.125,7.125 0,0 z" />
    <path
       id="path4158"
       style="fill:#000000;fill-opacity:1;fill-rule:evenodd;stroke:none"
       d="m 194.30357,146.3622 c 2,0 3.5,1.5 3.5,3.5 0,2 -1.5,3.5 -3.5,3.5 -2,0 -3.5,-1.5 -3.5,-3.5 0,-2 1.5,-3.5 3.5,-3.5 z m -3.5,0 0,0 z m 7.125,7.125 0,0 z" />
    <g
       transform="matrix(1.25,0,0,-1.25,-0.57142759,1096.1122)"
       id="g4160">
      <path
         id="path4162"
         style="fill:none;stroke:#eeeeee;stroke-width:0.28299001;stroke-linecap:butt;stroke-linejoin:round;stroke-miterlimit:10;stroke-dasharray:none;stroke-opacity:1"
         d="m 120.5,714.4 -63.8,0 0,85.1 127.6,0 0,-85.1 -63.8,0 z" />
    </g>
    <g
       transform="matrix(1.25,0,0,-1.25,-0.57142759,1096.1122)"
       id="g4164">
      <text
         id="text4166"
         style="font-variant:normal;font-weight:normal;font-size:6px;font-family:'Liberation Sans';-inkscape-font-specification:LiberationSans;writing-mode:lr-tb;fill:#dddddd;fill-opacity:1;fill-rule:nonzero;stroke:none"
         transform="matrix(1,0,0,-1,63.8,704.9)">
        <tspan
           id="tspan4168"
           y="0"
           x="0 4.302 7.698 10.998 12.492 15.792 18.792 20.483999 22.176001 25.476 30.275999">Radius: 1mm</tspan>
      </text>
    </g>
    <g
       transform="matrix(1.25,0,0,-1.25,-0.57142759,1096.1122)"
       id="g4170">
      <text
         id="text4172"
         style="font-variant:normal;font-weight:normal;font-size:6px;font-family:'Liberation Sans';-inkscape-font-specification:LiberationSans;writing-mode:lr-tb;fill:#dddddd;fill-opacity:1;fill-rule:nonzero;stroke:none"
         transform="matrix(1,0,0,-1,63.8,698.1)">
        <tspan
           id="tspan4174"
           y="0"
           x="0 3.9000001 7.296 10.296 11.988 15.288 18.684 22.08 23.681999 25.374001 28.77 32.166 36.863998">Abstand: 25mm</tspan>
      </text>
    </g>
    <g
       transform="matrix(1.25,0,0,-1.25,10.500001,1096.4693)"
       id="g4176">
      <g
         id="g4178" />
      <g
         id="g4184">
        <g
           style="opacity:0.5"
           id="g4186"
           clip-path="url(#clipPath4180)" />
      </g>
    </g>
  </g>
</svg>
